<svg width="54" height="19" viewBox="0 0 54 19" fill="none" xmlns="http://www.w3.org/2000/svg">
<path d="M39.0671 0.760537C38.2094 0.399087 36.8489 0 35.1666 0C30.872 0 27.8478 2.43241 27.8293 5.91001C27.7936 8.47578 29.9945 9.90087 31.6406 10.7564C33.3231 11.6306 33.8951 12.2012 33.8951 12.9804C33.8779 14.1772 32.5355 14.7288 31.2834 14.7288C29.5472 14.7288 28.6169 14.4444 27.2031 13.7786L26.6305 13.4932L26.0219 17.5032C27.0419 17.9968 28.9211 18.4348 30.872 18.4539C35.4351 18.4539 38.4058 16.0592 38.441 12.3532C38.4584 10.3197 37.2962 8.76146 34.7906 7.48817C33.2696 6.6708 32.3381 6.11966 32.3381 5.28335C32.356 4.52306 33.126 3.74434 34.8429 3.74434C36.2567 3.7062 37.2955 4.06714 38.0824 4.42834L38.4757 4.61803L39.0671 0.760537Z" fill="white"/>
<path d="M23.3025 18.188H18.9537L21.6738 0.324069H26.0223L23.3025 18.188Z" fill="white"/>
<path fill-rule="evenodd" clip-rule="evenodd" d="M50.215 0.324069H46.8512C45.8139 0.324069 45.0258 0.646874 44.5783 1.80624L38.1187 18.1877H42.6817C42.6817 18.1877 43.433 15.9829 43.5944 15.508H49.1779C49.3028 16.1352 49.6968 18.1877 49.6968 18.1877H53.7234L50.215 0.324069ZM44.847 11.8594C45.2051 10.8332 46.5832 6.86125 46.5832 6.86125C46.5759 6.8766 46.6324 6.71022 46.7166 6.46254L46.7174 6.46003C46.8423 6.09248 47.0275 5.54716 47.1554 5.15099L47.4593 6.69025C47.4593 6.69025 48.2828 10.9663 48.4617 11.8594H44.847Z" fill="white"/>
<path d="M15.3214 0.324069L11.0625 12.5055L10.5971 10.035L9.07614 1.8254C8.82572 0.684464 8.05618 0.361407 7.1078 0.323771H0.111009L0.0394287 0.684717C1.74586 1.1482 3.27212 1.81608 4.60944 2.64649L8.48562 18.169H13.0844L19.9199 0.324069H15.3214Z" fill="white"/>
</svg>
